<svg version="1.1" id="Layer_1" xmlns="http://www.w3.org/2000/svg" xmlns:xlink="http://www.w3.org/1999/xlink" x="0px" y="0px"
	 width="100%" viewBox="0 0 1024 1024" enable-background="new 0 0 1024 1024" xml:space="preserve">
<path fill="#000000" opacity="1.000000" stroke="none" 
	d="
M396.669067,826.488770 
	C344.335114,806.872314 299.493927,776.716553 262.558594,735.338989 
	C221.784622,689.661072 195.000397,636.841736 183.450272,576.422607 
	C179.316742,554.799988 176.599579,533.147095 176.620285,511.120178 
	C176.672287,455.807922 190.033936,403.893768 215.682114,354.972443 
	C249.613403,290.251984 299.762024,242.136307 364.904327,209.639603 
	C395.281311,194.485825 427.479553,184.700684 461.125580,179.404572 
	C486.921692,175.344070 512.830078,174.256653 538.718079,175.922409 
	C611.645996,180.614868 675.997742,206.822586 731.679321,254.399841 
	C780.690491,296.277557 814.907471,347.925537 834.762756,409.088257 
	C841.902039,431.080353 845.990417,453.769989 848.518433,476.801208 
	C850.597961,495.746582 851.036194,514.714539 850.060852,533.636536 
	C848.249512,568.778259 839.876709,602.643311 826.836548,635.226318 
	C811.660034,673.147095 790.427490,707.454346 762.627014,737.505371 
	C715.101624,788.878113 657.706726,823.695618 589.382385,839.810242 
	C555.240051,847.862915 520.574646,848.914185 485.706696,846.479431 
	C455.133209,844.344604 425.682678,837.305481 396.669067,826.488770 
M662.884277,779.330750 
	C666.042114,777.472717 669.221680,775.650574 672.354492,773.751221 
	C714.704712,748.075439 749.135986,714.272705 775.140869,672.167419 
	C804.100098,625.278748 818.652893,573.891479 820.521301,518.962830 
	C821.325806,495.312744 819.232422,471.736359 814.260254,448.581024 
	C799.077454,377.875519 763.912659,319.147247 708.032898,273.010956 
	C682.392822,251.841629 654.357971,234.515808 622.974487,223.480881 
	C576.982544,207.309402 529.540955,202.225235 480.960236,207.184082 
	C449.779694,210.366821 419.582123,217.366425 390.955200,230.037827 
	C318.606018,262.062317 265.725739,313.999847 233.370789,386.390198 
	C211.959564,434.295227 203.930954,484.499146 208.180908,536.773987 
	C209.787094,556.530090 212.876511,575.970764 218.288513,595.049561 
	C254.935211,724.239014 367.536926,808.132263 495.626221,817.445068 
	C517.353149,819.024719 539.206970,817.932739 560.820801,814.514282 
	C596.657166,808.846436 630.522095,797.390076 662.884277,779.330750 
z"/>
<path fill="#000000" opacity="1.000000" stroke="none" 
	d="
M510.669678,310.415802 
	C514.736084,321.254395 520.235474,330.977325 525.153198,340.987305 
	C533.783752,358.554871 532.244934,375.717102 522.032410,392.247833 
	C521.607361,392.935791 521.248718,393.664764 520.680054,394.700836 
	C524.950684,398.319122 527.552917,395.106567 529.740601,392.490662 
	C534.667053,386.599823 536.768494,379.357391 538.623474,372.063904 
	C541.105347,362.305511 540.972900,352.360626 540.393372,342.595428 
	C541.013000,342.236420 541.288879,341.942017 541.578552,341.927856 
	C567.883606,340.639343 593.955811,341.345825 618.101257,353.656738 
	C645.460815,367.606415 662.375122,389.618530 666.385132,420.324799 
	C670.554504,452.250580 662.381958,480.691711 639.788025,504.300323 
	C634.924500,509.382294 629.162842,513.375549 622.690552,516.262146 
	C621.229614,516.913696 619.808350,517.654297 618.340881,518.367493 
	C619.339050,520.223450 620.919312,520.388977 622.260742,520.974670 
	C654.833801,535.196716 674.097595,559.584778 678.362488,595.132507 
	C681.605164,622.160767 676.529053,647.349670 659.023560,668.791077 
	C644.038208,687.145691 623.626587,697.147827 601.099792,703.091431 
	C589.325928,706.197937 577.333191,707.499329 565.091492,707.465027 
	C504.604248,707.295349 444.116333,707.367554 383.628662,707.395264 
	C371.848480,707.400696 369.011780,707.222046 368.703888,691.786255 
	C368.568634,685.006897 371.944061,679.547119 376.623993,675.100586 
	C383.986298,668.105347 386.895905,659.947937 386.862305,649.681702 
	C386.583496,564.533264 386.641022,479.383514 386.748413,394.234344 
	C386.758636,386.110138 384.510223,379.388641 378.851288,373.448486 
	C373.429749,367.757446 368.711731,361.443756 368.508545,352.982941 
	C368.333954,345.713623 370.566711,342.977539 377.736298,341.943787 
	C379.373505,341.707703 381.059998,341.770233 382.723846,341.769043 
	C402.219879,341.754974 421.721191,342.027466 441.209869,341.647156 
	C452.549622,341.425812 459.805084,347.246582 464.923645,356.227264 
	C470.263702,365.596527 470.472290,375.875427 468.341034,386.270355 
	C467.973907,388.060883 466.146332,390.318054 468.973877,391.446289 
	C472.011139,392.658264 473.289062,390.062592 474.015320,387.931885 
	C478.064209,376.053711 477.731567,364.365540 471.567657,353.221680 
	C469.806244,350.037170 467.617767,347.031738 465.280823,344.231537 
	C441.769958,316.060150 449.924011,284.913208 476.341919,264.041809 
	C479.015564,261.929474 481.818481,259.848816 485.490845,259.878113 
	C486.846375,262.707428 485.412079,264.823700 484.732483,266.931427 
	C481.473236,277.039429 477.440247,286.879822 475.978241,297.549683 
	C474.360504,309.355377 476.286591,320.394501 481.822662,330.825104 
	C484.005066,334.937164 486.548920,338.862427 489.020142,342.815277 
	C498.998444,358.776062 501.344177,374.930389 490.418365,391.489990 
	C489.979889,392.154541 489.791321,392.984009 489.429810,393.876099 
	C492.212585,396.458466 494.201172,394.502625 495.911835,392.874908 
	C501.923981,387.154358 504.861969,379.834869 506.662445,371.885376 
	C508.898682,362.011719 506.980682,352.764099 503.012238,343.726074 
	C497.639557,331.489868 496.942291,318.982117 501.136292,306.278534 
	C501.879211,304.028290 502.183319,300.808197 505.464996,300.974030 
	C508.384918,301.121643 508.318817,304.258240 509.228333,306.286316 
	C509.770050,307.494171 510.092896,308.800171 510.669678,310.415802 
M546.605164,510.415710 
	C548.130249,509.499298 549.835083,509.730042 551.480835,509.705627 
	C561.382751,509.558716 570.934448,507.645905 580.218323,504.229156 
	C594.939941,498.811127 604.446960,485.716888 604.985901,469.998260 
	C605.526611,454.228424 597.229797,442.990356 582.331726,439.869781 
	C578.640198,439.096588 574.717468,439.377228 570.898254,439.280273 
	C568.084351,439.208862 566.264832,438.082214 566.707886,435.080048 
	C567.565552,429.267334 564.044312,428.391174 559.576965,428.390808 
	C515.933350,428.387115 472.289703,428.403931 428.646179,428.331848 
	C425.416107,428.326508 424.248322,429.441650 424.265137,432.697510 
	C424.303009,440.035187 425.375031,447.251038 426.300629,454.492218 
	C428.621674,472.650116 433.486298,489.984772 443.101532,505.737518 
	C458.257904,530.568420 484.370789,541.711975 510.964691,534.506348 
	C525.248901,530.636047 536.806030,522.485962 546.605164,510.415710 
M564.835144,569.702209 
	C559.352966,567.617920 553.644104,566.439453 547.816528,566.415771 
	C522.514893,566.312744 497.212067,566.455505 471.911041,566.294495 
	C467.579559,566.266968 466.037537,567.651062 466.062408,572.004395 
	C466.200317,596.140381 466.207886,620.278076 466.063843,644.414001 
	C466.038452,648.666870 467.673096,649.742859 471.666382,649.708252 
	C490.641541,649.543518 509.619537,649.532227 528.595093,649.669006 
	C537.920532,649.736206 547.147217,649.051758 556.367249,647.697754 
	C574.155151,645.085693 588.720703,630.122620 590.592773,612.292969 
	C592.559753,593.558655 582.550110,576.663025 564.835144,569.702209 
z"/>
<path fill="#000000" opacity="1.000000" stroke="none" 
	d="
M583.288208,458.573486 
	C589.457825,465.799683 589.624146,474.377441 584.725647,482.258911 
	C580.672791,488.779846 563.086182,496.151215 556.458862,493.719818 
	C555.488403,492.409760 556.329895,491.159912 556.763855,489.997437 
	C560.425110,480.189423 563.301208,470.176270 564.828491,459.803284 
	C565.376099,456.084076 567.171570,454.182465 571.184814,454.911804 
	C575.243835,455.649475 579.489075,455.678162 583.288208,458.573486 
z"/>
</svg>